# AST/ASF file generated using VICON BodyLanguage
# -----------------------------------------------
:version 1.10
:name VICON
:units
  mass 1.0
  length 0.45
  angle deg
:documentation
   .ast/.asf automatically generated from VICON data using
   VICON BodyBuilder and BodyLanguage model FoxedUp or BRILLIANT.MOD
:root
   order TX TY TZ RX RY RZ
   axis XYZ
   position 0 0 0  
   orientation 0 0 0 
:bonedata
  begin
     id 1 
     name lhipjoint
     direction 0.584852 -0.759097 0.285867 
     length 2.43633 
     axis 0 0 0  XYZ
  end
  begin
     id 2 
     name lfemur
     direction 0.34202 -0.939693 0  
     length 7.14704  
     axis 0 0 20  XYZ
    dof rx ry rz
    limits (-160.0 20.0)
           (-70.0 70.0)
           (-60.0 70.0)
  end
  begin
     id 3 
     name ltibia
     direction 0.342022 -0.939692 0   
     length 7.68483   
     axis 0 0 20   XYZ
    dof rx
    limits (-10.0 170.0)
  end
  begin
     id 4 
     name lfoot
     direction 0.0999605 -0.274639 0.956337   
     length 2.40452   
     axis -90 7.62852e-016 20   XYZ
    dof rx rz
    limits (-45.0 90.0)
           (-70.0 20.0)
  end
  begin
     id 5 
     name ltoes
     direction 1.53468e-011 -4.21881e-011 1   
     length 1.19837   
     axis -90 7.62852e-016 20   XYZ
    dof rx
    limits (-90.0 20.0)
  end
  begin
     id 6 
     name rhipjoint
     direction -0.569886 -0.769002 0.289597   
     length 2.40495  
     axis 0 0 0  XYZ 
  end
  begin
     id 7 
     name rfemur
     direction -0.34202 -0.939693 0   
     length 7.45086   
     axis 0 0 -20   XYZ
    dof rx ry rz
    limits (-160.0 20.0)
           (-70.0 70.0)
           (-70.0 60.0)
  end
  begin
     id 8 
     name rtibia
     direction -0.34202 -0.939693 0   
     length 7.76831   
     axis 0 0 -20   XYZ
    dof rx
    limits (-10.0 170.0)
 end
 begin
     id 9 
     name rfoot
     direction -0.0798572 -0.219406 0.97236   
     length 2.35911  
     axis -90 -7.62852e-016 -20   XYZ
    dof rx rz
    limits (-45.0 90.0)
           (-20.0 70.0)
  end
  begin
     id 10 
     name rtoes
     direction -1.53469e-011 -4.21728e-011 1   
     length 1.18261   
     axis -90 -7.62852e-016 -20   XYZ
    dof rx
    limits (-90.0 20.0)
  end
  begin
     id 11 
     name lowerback
     direction 0.0242088 0.999437 0.0232389   
     length 2.1561   
     axis 0 0 0   XYZ
    dof rx ry rz
    limits (-20.0 45.0)
           (-30.0 30.0)
           (-30.0 30.0)
  end
  begin
     id 12 
     name upperback
     direction -0.0356893 0.999013 -0.0264323   
     length 2.14431   
     axis 0 0 0   XYZ
    dof rx ry rz
    limits (-20.0 45.0)
           (-30.0 30.0)
           (-30.0 30.0)
  end
  begin
     id 13 
     name thorax
     direction -0.0472163 0.998194 -0.0371284   
     length 2.16169   
     axis 0 0 0   XYZ
    dof rx ry rz
    limits (-20.0 45.0)
           (-30.0 30.0)
           (-30.0 30.0)
  end
  begin
     id 14 
     name lowerneck
     direction 0.00863244 0.999921 0.00911972   
     length 1.58651   
     axis 0 0 0   XYZ
    dof rx ry rz
    limits (-20.0 45.0)
           (-30.0 30.0)
           (-30.0 30.0)
  end
  begin
     id 15 
     name upperneck
     direction 0.149523 0.979068 -0.138086   
     length 1.57486   
     axis 0 0 0   XYZ
    dof rx ry rz
    limits (-20.0 45.0)
           (-30.0 30.0)
           (-30.0 30.0)
  end
  begin
     id 16
     name head
     direction 0.0445219 0.997708 -0.0509576  
     length 1.6019  
     axis 0 0 0   XYZ
    dof rx ry rz
    limits (-20.0 45.0)
           (-30.0 30.0)
           (-30.0 30.0)
  end
  begin
     id 17 
     name lclavicle
     direction 0.911271 0.381667 -0.154644  
     length 3.80848  
     axis 0 0 0   XYZ
    dof ry rz
    limits (-20.0 10.0)
           (0.0 20.0)
  end
  begin
     id 18 
     name lhumerus
     direction 1 -4.49003e-011 2.1308e-027   
     length 5.19069   
     axis 180 -30 -90   XYZ
    dof rx ry rz
    limits (-60.0 90.0)
           (-90.0 90.0)
           (-90.0 90.0)
  end
  begin
     id 19
     name lradius
     direction 1 -4.48914e-011 4.01554e-027   
     length 3.30016   
     axis 180 -30 -90   XYZ
    dof rx
    limits (-10.0 170.0)
  end
  begin
     id 20
     name lwrist
     direction 1 -4.49003e-011 1.1934e-026   
     length 1.65008   
     axis -8.46377e-015 90 90   XYZ
    dof ry
    limits (-180.0 0.0)
 end
  begin
     id 21 
     name lhand
     direction 1 -4.49034e-011 2.38659e-026   
     length 0.707698   
     axis -1.52313e-014 90 90   XYZ
    dof rx rz
    limits (-90.0 90.0)
           (-45.0 45.0)
  end
  begin
     id 22 
     name lfingers
     direction 1 -4.48691e-011 4.77775e-026   
     length 0.570564   
     axis -3.04623e-014 90 90   XYZ
    dof rx
    limits (0.0 90.0)
  end
  begin
     id 23
     name lthumb
     direction 0.707107 -6.34832e-011 0.707107   
     length 0.819219   
     axis -90 45 -1.62303e-014   XYZ
    dof rx rz
    limits (-45.0 45.0)
           (-45.0 45.0)
  end
  begin
     id 24 
     name rclavicle
     direction -0.815579 0.573708 -0.0754329   
     length 3.54371  
     axis 0 0 0   XYZ 
    dof ry rz
    limits (-10.0 20.0)
           (-20.0 0.0)
  end
  begin
     id 25 
     name rhumerus
     direction -1 -4.48956e-011 3.05351e-028  
     length 5.23924   
     axis 180 30 90   XYZ
    dof rx ry rz
    limits (-90.0 60.0)
           (-90.0 90.0)
           (-90.0 90.0)
  end
  begin
     id 26 
     name rradius
     direction -1 -4.49013e-011 3.53849e-027   
     length 3.32953   
     axis 180 30 90   XYZ
    dof rx
    limits (-10.0 170.0)
  end
  begin
     id 27 
     name rwrist
     direction -1 -4.48901e-011 1.19374e-026   
     length 1.66477   
     axis -8.46377e-015 -90 -90   XYZ
    dof ry
    limits (-180.0 0.0)
  end
  begin
     id 28
     name rhand
     direction -1 -4.48877e-011 2.38764e-026   
     length 0.607414   
     axis -1.52313e-014 -90 -90   XYZ
    dof rx rz
    limits (-90.0 90.0)
           (-45.0 45.0)
  end
  begin
     id 29
     name rfingers
     direction -1 -4.48882e-011 4.77521e-026   
     length 0.489712   
     axis -3.04623e-014 -90 -90   XYZ
    dof rx
    limits (0.0 90.0)
  end
  begin
     id 30
     name rthumb
     direction -0.707107 -6.34974e-011 0.707107   
     length 0.703132   
     axis -90 -45 1.62303e-014   XYZ
    dof rx rz
    limits (-45.0 45.0)
           (-45.0 45.0)
  end
:hierarchy
  begin
    root lhipjoint rhipjoint lowerback
    lhipjoint lfemur
    lfemur ltibia
    ltibia lfoot
    lfoot ltoes
    rhipjoint rfemur
    rfemur rtibia
    rtibia rfoot
    rfoot rtoes
    lowerback upperback
    upperback thorax
    thorax lowerneck lclavicle rclavicle
    lowerneck upperneck
    upperneck head
    lclavicle lhumerus
    lhumerus lradius
    lradius lwrist
    lwrist lhand lthumb
    lhand lfingers
    rclavicle rhumerus
    rhumerus rradius
    rradius rwrist
    rwrist rhand rthumb
    rhand rfingers
  end

#!OML:ASF E:\VariousWalksJay\Project 1\Capture day 1\Session 1\Actor2.ASF
:FULLY-SPECIFIED
:DEGREES
1
root -5.71438 17.4402 -28.274 2.80986 -5.56221 -0.731307
lowerback 1.40336 -1.60473 2.09434
upperback 4.30646 -2.17128 0.249078
thorax 3.5759 -1.02002 -0.951936
lowerneck 1.70761 -8.61551 -10.491
upperneck -7.9634 -11.0156 17.7886
head -0.945371 -5.77593 7.12351
rclavicle 2.10588e-014 -6.65929e-015
rhumerus -28.4435 0.472881 -78.6129
rradius 26.0448
rwrist 3.00114
rhand -4.04442 -6.47973
rfingers 7.12502
rthumb 21.7113 -35.2822
lclavicle 2.10588e-014 -6.65929e-015
lhumerus -36.0201 18.3524 72.4617
lradius 19.0501
lwrist -0.941706
lhand -2.42888 -12.6018
lfingers 7.12502
lthumb 23.262 16.0131
rfemur -17.1017 -5.75012 17.3125
rtibia 41.7037
rfoot -26.4932 -12.7224
rtoes -6.75064
lfemur -20.74 18.3481 -15.4768
ltibia 49.2076
lfoot -18.3559 1.35384
ltoes -23.8858
2
root -5.72087 17.438 -28.2777 2.83996 -5.44711 -0.702556
lowerback 1.12009 -1.63765 2.10156
upperback 4.36792 -2.22384 0.243641
thorax 3.79779 -1.04278 -0.972641
lowerneck 1.51402 -8.63587 -10.3587
upperneck -8.0764 -11.0097 17.8592
head -0.948904 -5.77344 7.11801
rclavicle -3.64024e-015 -4.32357e-015
rhumerus -28.3112 0.604534 -78.6971
rradius 26.5359
rwrist 2.61857
rhand -3.83072 -6.80629
rfingers 7.12502
rthumb 21.9165 -35.5849
lclavicle -3.64024e-015 -4.32357e-015
lhumerus -35.9641 18.5857 72.3208
lradius 18.9052
lwrist -1.11077
lhand -2.44866 -12.5487
lfingers 7.12502
lthumb 23.243 16.0686
rfemur -17.1616 -5.78772 17.3168
rtibia 41.7677
rfoot -26.533 -12.7981
rtoes -6.7882
lfemur -20.1695 17.912 -15.6577
ltibia 48.0075
lfoot -18.7752 2.76247
ltoes -23.1051
3
root -5.72462 17.4372 -28.2732 2.76187 -5.5766 -0.680488
lowerback 0.965408 -1.58482 2.11404
upperback 4.46721 -2.15875 0.216038
thorax 3.98928 -1.00646 -1.01343
lowerneck 1.17394 -8.6869 -10.1481
upperneck -8.15259 -11.0388 17.8908
head -0.919647 -5.78254 7.07723
rclavicle -1.52816e-014 1.27222e-014
rhumerus -28.1992 0.657459 -78.7596
rradius 27.0526
rwrist 2.34001
rhand -3.49081 -6.94727
rfingers 7.12502
rthumb 22.2429 -35.6873
lclavicle -1.52816e-014 1.27222e-014
lhumerus -35.7927 18.7757 72.1979
lradius 18.6597
lwrist -1.3034
lhand -2.53595 -12.5283
lfingers 7.12502
lthumb 23.1593 16.0995
rfemur -17.1086 -5.70376 17.2867
rtibia 41.8335
rfoot -26.5907 -12.7305
rtoes -6.69599
lfemur -19.3934 17.5879 -15.7709
ltibia 46.7159
lfoot -19.3141 3.42888
ltoes -21.1374
4
root -5.7305 17.4345 -28.2774 2.82042 -5.41501 -0.595105
lowerback 0.826587 -1.67616 1.94988
upperback 4.3713 -2.2819 0.270605
thorax 3.97204 -1.07545 -0.871218
lowerneck 1.2807 -8.64227 -10.1844
upperneck -8.22941 -10.9765 17.9181
head -0.964372 -5.75745 7.10269
rclavicle 2.36057e-016 -1.57537e-014
rhumerus -28.2938 0.954775 -78.774
rradius 27.6236
rwrist 2.07647
rhand -3.00733 -7.04507
rfingers 7.12502
rthumb 22.7069 -35.729
lclavicle 2.36057e-016 -1.57537e-014
lhumerus -35.9957 19.1281 71.9979
lradius 18.5142
lwrist -1.57205
lhand -2.61584 -12.3766
lfingers 7.12502
lthumb 23.0826 16.2608
rfemur -17.203 -5.74721 17.2348
rtibia 41.9004
rfoot -26.6602 -12.8001
rtoes -6.50671
lfemur -18.9002 17.0695 -15.9946
ltibia 45.4537
lfoot -19.7589 3.78017
ltoes -19.2702
5
root -5.73467 17.434 -28.2784 2.77086 -5.41927 -0.538894
lowerback 0.797424 -1.76907 1.74294
upperback 4.24379 -2.40504 0.383162
thorax 3.86508 -1.14808 -0.64147
lowerneck 1.60424 -8.52458 -10.3889
upperneck -8.39412 -10.8247 17.9879
head -1.07079 -5.69538 7.18694
rclavicle -3.13583e-014 2.98177e-015
rhumerus -28.5501 1.60617 -78.7896
rradius 28.3149
rwrist 1.67968
rhand -2.52998 -7.19927
rfingers 7.12502
rthumb 23.165 -35.8264
lclavicle -3.13583e-014 2.98177e-015
lhumerus -36.4175 19.5259 71.8017
lradius 18.4274
lwrist -1.76197
lhand -2.69198 -12.2892
lfingers 7.12502
lthumb 23.0096 16.3574
rfemur -17.1895 -5.69265 17.1888
rtibia 41.9663
rfoot -26.6909 -12.8833
rtoes -6.7132
lfemur -18.228 16.632 -16.1406
ltibia 44.243
lfoot -20.1758 4.11058
ltoes -17.6926
6
root -5.73673 17.4329 -28.2758 2.61142 -5.53186 -0.487872
lowerback 0.820392 -1.78875 1.62378
upperback 4.21984 -2.42979 0.414741
thorax 3.83265 -1.16563 -0.541884
lowerneck 1.57312 -8.4424 -10.4586
upperneck -8.44583 -10.7023 18.1115
head -1.08534 -5.63609 7.24182
rclavicle -3.21783e-014 -8.24956e-015
rhumerus -28.6955 1.90507 -78.8375
rradius 28.9481
rwrist 1.44733
rhand -2.24768 -7.51343
rfingers 7.12502
rthumb 23.4358 -36.1062
lclavicle -3.21783e-014 -8.24956e-015
lhumerus -36.5961 19.7965 71.6062
lradius 18.2759
lwrist -1.97877
lhand -2.66982 -12.3778
lfingers 7.12502
lthumb 23.0308 16.2661
rfemur -17.0581 -5.58312 17.1199
rtibia 42.0441
rfoot -26.7673 -12.8618
rtoes -6.61891
lfemur -17.3995 16.2792 -16.2465
ltibia 43.1356
lfoot -20.6187 4.66012
ltoes -16.5388
7
root -5.73999 17.43 -28.2798 2.55392 -5.45923 -0.36402
lowerback 0.752299 -1.81023 1.49305
upperback 4.23568 -2.45656 0.36329
thorax 3.89004 -1.18189 -0.525255
lowerneck 1.55227 -8.46928 -10.3677
upperneck -8.55713 -10.7189 18.1769
head -1.11207 -5.65102 7.2497
rclavicle -1.93318e-014 -4.37326e-015
rhumerus -28.7327 1.91804 -78.927
rradius 29.561
rwrist 1.22654
rhand -1.89642 -7.54181
rfingers 7.12502
rthumb 23.7727 -36.0912
lclavicle -1.93318e-014 -4.37326e-015
lhumerus -36.4911 19.8472 71.473
lradius 18.1003
lwrist -2.17157
lhand -2.70228 -12.3417
lfingers 7.12502
lthumb 22.9997 16.3061
rfemur -17.0592 -5.60427 17.0015
rtibia 42.1372
rfoot -26.7987 -12.9564
rtoes -6.76713
lfemur -16.8192 15.7995 -16.4912
ltibia 42.1667
lfoot -20.9073 5.41335
ltoes -16.4537
8
root -5.74302 17.4288 -28.2834 2.4872 -5.40036 -0.235203
lowerback 0.681557 -1.86653 1.26273
upperback 4.18804 -2.5295 0.384731
thorax 3.88965 -1.22676 -0.378226
lowerneck 1.83265 -8.38444 -10.5319
upperneck -8.76615 -10.5971 18.3879
head -1.21294 -5.60935 7.36952
rclavicle -1.47846e-014 -9.93923e-017
rhumerus -28.8342 2.08921 -78.9451
rradius 30.1189
rwrist 1.11171
rhand -1.47831 -7.95337
rfingers 7.12502
rthumb 24.1737 -36.45
lclavicle -1.47846e-014 -9.93923e-017
lhumerus -36.564 20.0945 71.2991
lradius 17.8938
lwrist -2.46812
lhand -2.74385 -12.3232
lfingers 7.12502
lthumb 22.9598 16.3295
rfemur -17.0404 -5.53068 16.8817
rtibia 42.2271
rfoot -26.8883 -13.0757
rtoes -6.66765
lfemur -16.2547 15.3312 -16.7278
ltibia 41.3054
lfoot -21.1964 6.10564
ltoes -16.3206
9
root -5.74563 17.4282 -28.2907 2.4857 -5.33783 -0.116982
lowerback 0.580673 -1.85927 1.1208
upperback 4.20258 -2.51727 0.321845
thorax 3.96505 -1.22371 -0.367423
lowerneck 1.81137 -8.39547 -10.4451
upperneck -8.95374 -10.5792 18.5368
head -1.26045 -5.61197 7.40846
rclavicle 3.26504e-014 -5.26779e-015
rhumerus -28.8387 1.96077 -79.0424
rradius 30.6662
rwrist 0.900121
rhand -1.24963 -7.92395
rfingers 7.12502
rthumb 24.3929 -36.3913
lclavicle 3.26504e-014 -5.26779e-015
lhumerus -36.284 20.0803 71.1969
lradius 17.6206
lwrist -2.72287
lhand -2.78737 -12.299
lfingers 7.12502
lthumb 22.918 16.359
rfemur -17.1175 -5.45128 16.7849
rtibia 42.3264
rfoot -26.964 -13.2058
rtoes -6.52115
lfemur -15.837 14.815 -16.9559
ltibia 40.5302
lfoot -21.5687 6.65542
ltoes -15.0933
10
root -5.7472 17.428 -28.2966 2.38444 -5.28053 -0.0304107
lowerback 0.542857 -1.84098 1.05338
upperback 4.31139 -2.49045 0.227427
thorax 4.09866 -1.20967 -0.429871
lowerneck 1.71083 -8.48837 -10.2896
upperneck -9.10557 -10.6707 18.6507
head -1.2746 -5.66615 7.41535
rclavicle -2.55811e-014 1.17283e-014
rhumerus -28.7149 1.71995 -79.1659
rradius 31.133
rwrist 0.804426
rhand -0.995275 -7.9745
rfingers 7.12502
rthumb 24.6367 -36.4088
lclavicle -2.55811e-014 1.17283e-014
lhumerus -35.8456 20.0165 71.1311
lradius 17.3994
lwrist -2.95385
lhand -2.82526 -12.2137
lfingers 7.12502
lthumb 22.8817 16.4487
rfemur -17.0644 -5.3299 16.7118
rtibia 42.4078
rfoot -27.0338 -13.3967
rtoes -6.48377
lfemur -15.3597 14.3162 -17.1354
ltibia 39.8038
lfoot -21.8438 7.35977
ltoes -14.7263
11
root -5.74846 17.4302 -28.3016 2.28828 -5.2306 0.128902
lowerback 0.521383 -1.79967 0.928625
upperback 4.42718 -2.42952 0.0840133
thorax 4.23107 -1.17976 -0.509287
lowerneck 1.16071 -8.57864 -10.03
upperneck -9.1117 -10.741 18.7992
head -1.17774 -5.69079 7.38715
rclavicle 1.90585e-014 1.42628e-014
rhumerus -28.6121 1.3943 -79.3259
rradius 31.6298
rwrist 0.699829
rhand -0.745637 -8.15538
rfingers 7.12502
rthumb 24.876 -36.5568
lclavicle 1.90585e-014 1.42628e-014
lhumerus -35.3176 19.827 71.0933
lradius 17.1928
lwrist -3.18021
lhand -2.87918 -12.2156
lfingers 7.12502
lthumb 22.8299 16.4532
rfemur -17.0105 -5.2319 16.5503
rtibia 42.4694
rfoot -27.092 -13.5485
rtoes -6.42611
lfemur -14.9041 13.8296 -17.3793
ltibia 39.1042
lfoot -22.1224 7.89455
ltoes -13.9495
